<svg width="242" height="250" viewBox="0 0 242 250" fill="none" xmlns="http://www.w3.org/2000/svg">
<g clip-path="url(#clip0_5_1214)">
<path d="M55.6986 182.893H0V205.751H55.6986V182.893Z" fill="#285F9D"/>
<path d="M241.636 182.892H185.938V205.75H241.636V182.892Z" fill="#285F9D"/>
<path d="M134.473 182.939V205.73H125.802L125.787 198.038H115.564L115.504 205.73H106.93V182.939H115.504L115.511 190.6H125.914L125.899 182.939H134.473Z" fill="#285F9D"/>
<path d="M74.2593 182.939L84.8632 182.946L91.0047 193.199V182.939H99.452V205.767H87.9302L82.7066 195.268V205.767H74.2593V182.939Z" fill="#285F9D"/>
<path d="M167.306 190.596L167.299 182.949H142.106V205.71H167.299V198.033H150.516L150.509 190.596H167.306Z" fill="#285F9D"/>
<path d="M18.5662 167.649H0V152.408L18.5662 137.166V167.649Z" fill="#285F9D"/>
<path d="M55.7005 167.648H37.1343V106.742L55.7005 91.4409V167.648Z" fill="#285F9D"/>
<path d="M92.9499 167.656H74.3613V60.9668L92.9499 45.7255V167.656Z" fill="#285F9D"/>
<path d="M111.536 15.2414V167.655H130.139L130.124 15.2414L121.043 0L111.536 15.2414Z" fill="#285F9D"/>
<path d="M223.083 167.651H241.65V152.559L223.083 137.467V167.651Z" fill="#285F9D"/>
<path d="M185.909 167.648H204.49V106.742L185.909 91.4409V167.648Z" fill="#285F9D"/>
<path d="M148.734 167.652H167.301V60.9181L148.734 45.6095V167.652Z" fill="#285F9D"/>
<path d="M8.8963 226.097C10.344 226.097 11.6797 225.276 11.6797 223.536C11.6797 222.005 10.4634 221.004 8.8963 221.004C7.32921 221.004 6.08301 222.005 6.08301 223.536C6.08301 225.276 7.41876 226.097 8.8963 226.097Z" fill="#285F9D"/>
<path d="M12.8501 238.342H11.1785C7.93989 238.342 5.74597 236.96 5.74597 233.6V228.634H0V234.249C0 240.321 3.73861 243.823 10.2831 243.823H18.5886V228.634H12.8426V238.342H12.8501Z" fill="#285F9D"/>
<path d="M85.6675 235.685C85.6675 237.709 84.6153 238.837 82.8766 238.837C81.1379 238.837 80.1081 237.769 80.1081 235.798V228.576H74.9367V235.036C74.9367 237.963 72.6159 238.583 71.0638 238.583H69.6534V228.576H64.5044V238.583H50.9603V237.515C50.9603 231.302 48.0575 228.487 42.3265 228.487H39.3938L43.7891 221.004H37.5058L33.5806 228.517C33.6105 230.742 34.3791 232.564 35.185 233.722H42.9831C44.6696 233.722 45.7516 234.737 45.7516 236.559V238.583H27.0287V221.004H21.8872V243.818H71.0489C73.6457 243.818 75.7277 242.974 77.1306 241.458C78.2947 243.198 80.3693 243.818 82.8542 243.818C88.4136 243.818 90.7941 241.092 90.7941 235.125V226.485H85.6526V235.685H85.6675Z" fill="#285F9D"/>
<path d="M100.146 247.577C100.146 247.069 100.505 246.733 101.034 246.733H102.445V244.904H101.004C98.9598 244.904 97.4897 245.83 97.4897 248.137V249.989H103.191V247.823H100.146V247.569V247.577Z" fill="#285F9D"/>
<path d="M102.558 226.485H97.416V236.29H102.558V226.485Z" fill="#285F9D"/>
<path d="M116.626 238.583H114.029C112.179 238.583 111.126 237.455 110.962 235.29V221.004H105.791V235.32C105.791 237.403 104.492 238.583 102.276 238.583H94.1123L95.1645 243.818H101.664C105.007 243.818 107.418 242.974 108.94 241.286C109.798 242.832 111.708 243.818 114.029 243.818H121.775V221.004H116.634V238.583H116.626Z" fill="#285F9D"/>
<path d="M135.004 225.842C136.414 225.842 137.66 225.058 137.66 223.452C137.66 221.989 136.496 221.033 135.004 221.033C133.511 221.033 132.377 221.989 132.377 223.452C132.377 225.058 133.623 225.842 135.004 225.842Z" fill="#285F9D"/>
<path d="M141.193 225.844C142.603 225.844 143.849 225.06 143.849 223.454C143.849 221.991 142.715 221.035 141.193 221.035C139.67 221.035 138.566 221.991 138.566 223.454C138.566 225.06 139.812 225.844 141.193 225.844Z" fill="#285F9D"/>
<path d="M156.92 245.188C155.45 245.188 154.293 246.114 154.293 247.578C154.293 249.184 155.539 249.998 156.92 249.998C158.3 249.998 159.576 249.184 159.576 247.578C159.576 246.114 158.412 245.188 156.92 245.188Z" fill="#285F9D"/>
<path d="M163.088 245.188C161.596 245.188 160.461 246.114 160.461 247.578C160.461 249.184 161.708 249.998 163.088 249.998C164.469 249.998 165.745 249.184 165.745 247.578C165.745 246.114 164.61 245.188 163.088 245.188Z" fill="#285F9D"/>
<path d="M171.697 225.861C173.077 225.861 174.353 225.077 174.353 223.412C174.353 221.948 173.189 220.992 171.697 220.992C170.204 220.992 169.01 221.948 169.01 223.412C169.01 225.069 170.286 225.861 171.697 225.861Z" fill="#285F9D"/>
<path d="M189.298 227.419H183.791V221.004H178.642V238.583H174.217V228.532H169.075V238.583H162.352V228.532H157.21V238.583H143.912V226.485H138.741V227.419C133.122 227.449 129.391 230.734 129.391 235.633V235.663C129.391 240.554 132.876 243.818 138.099 243.818H198.395V236.761C198.395 230.854 195.104 227.449 189.298 227.426M138.741 238.59H137.636C135.786 238.59 134.234 237.552 134.234 235.663V235.633C134.234 233.692 135.786 232.654 137.636 232.654H138.741V238.59ZM193.223 238.59H183.791V232.684H189.768C191.895 232.684 193.223 233.834 193.223 235.835V238.59Z" fill="#285F9D"/>
<path d="M227.317 238.578H216.273V227.414H211.124C205.482 227.414 201.721 230.707 201.721 235.629V235.658C201.721 240.55 205.206 243.813 210.437 243.813H211.071C210.877 244.881 210.019 245.165 208.661 245.165C206.945 245.165 205.176 245.023 203.624 244.739L204.482 249.66C205.922 249.914 207.273 249.996 208.684 249.996C213.139 249.996 215.623 248.279 216.153 243.806H232.451V220.992H227.309V238.571L227.317 238.578ZM211.071 238.578H209.967C208.116 238.578 206.564 237.54 206.564 235.651V235.621C206.564 233.679 208.116 232.641 209.967 232.641H211.071V238.578Z" fill="#285F9D"/>
<path d="M241.676 221.004H236.527V243.818H241.676V221.004Z" fill="#285F9D"/>
</g>
<defs>
<clipPath id="clip0_5_1214">
<rect width="241.667" height="250" fill="white"/>
</clipPath>
</defs>
</svg>
