<svg width="49" height="32" viewBox="0 0 49 32" fill="none" xmlns="http://www.w3.org/2000/svg">
<path fill-rule="evenodd" clip-rule="evenodd" d="M44.9099 0.702576H44.1714V0.577988C44.1714 0.509914 44.1855 0.457253 44.215 0.420005C44.2394 0.389179 44.2972 0.373766 44.3807 0.373766H44.7506V0H44.3717C44.1662 0 44.0057 0.0539455 43.8978 0.160552C43.7886 0.267159 43.7334 0.44184 43.7334 0.676888V1.11487H44.9112V0.701292L44.9099 0.702576ZM29.5727 0.579274H29.0345V1.11616H29.5727V0.579274ZM40.7587 7.25439H40.2205V7.79128H40.7587V7.25439ZM47.0793 6.40667C46.9984 6.52613 46.8918 6.61603 46.7595 6.67897V6.68026C46.6272 6.74319 46.4653 6.77402 46.2727 6.77402C46.1301 6.77402 45.9837 6.75475 45.836 6.71365L45.9772 6.19731C46.0402 6.2153 46.089 6.22686 46.125 6.23071C46.1596 6.23456 46.2033 6.23713 46.2521 6.23713C46.3549 6.23713 46.4384 6.223 46.5039 6.19346C46.5681 6.16392 46.6195 6.1164 46.658 6.05218C46.6965 5.98667 46.7235 5.9019 46.7389 5.79658C46.7543 5.69125 46.762 5.56281 46.762 5.41125V1.65304H47.3002V5.41125C47.3002 5.62061 47.2835 5.80942 47.2501 5.97768C47.2167 6.14465 47.1602 6.28851 47.0793 6.40667ZM39.1454 7.25439H39.6836V7.79128H39.1454V7.25439ZM30.649 0.579274H30.1108V1.11616H30.649V0.579274ZM43.1952 5.1929C42.9268 5.12354 42.6904 5.01565 42.4862 4.87051L42.4875 4.8718C42.2833 4.72666 42.1214 4.54042 42.0033 4.31436C41.8838 4.0883 41.8247 3.816 41.8247 3.49875C41.8247 3.23545 41.8787 2.99012 41.9866 2.76407C42.0932 2.53801 42.2447 2.34278 42.44 2.17966C42.6352 2.01654 42.869 1.88809 43.1425 1.79433C43.4161 1.70057 43.7192 1.65304 44.0506 1.65304H44.9112V5.39584C44.9112 5.81584 44.793 6.14979 44.5554 6.39897C44.3178 6.64686 43.9363 6.77145 43.4123 6.77145C43.2517 6.77145 43.0912 6.75347 42.9319 6.71494C42.7726 6.67769 42.589 6.61989 42.3834 6.54411L42.5517 6.02777C42.7212 6.10355 42.8728 6.1575 43.0051 6.18832C43.1374 6.22043 43.2864 6.23585 43.4521 6.23585C43.7436 6.23585 43.9697 6.17548 44.1315 6.05474C44.2921 5.93401 44.373 5.73236 44.373 5.45107V4.91804L44.1919 5.29694H44.0493C43.7488 5.29694 43.4636 5.26226 43.1952 5.1929ZM42.815 2.55599C42.6789 2.6703 42.5684 2.80774 42.4862 2.96829H42.4875C42.404 3.13013 42.3629 3.2971 42.3629 3.49875C42.3629 3.70041 42.4014 3.87894 42.4772 4.03564C42.553 4.19234 42.6583 4.32335 42.7932 4.43124C42.928 4.53913 43.0835 4.62133 43.2607 4.67656C43.438 4.73308 43.6268 4.76134 43.8284 4.76134H44.373V2.35048L44.68 2.19892H43.8104C43.628 2.20021 43.4521 2.23103 43.2825 2.2914C43.1079 2.35434 42.9512 2.44168 42.815 2.55599ZM29.1822 6.69824H30.2996V6.29622C30.3099 6.31548 30.3215 6.33475 30.333 6.35145C30.414 6.46961 30.5206 6.5608 30.6529 6.62374C30.7852 6.68668 30.947 6.7175 31.1397 6.7175H40.9462V1.65304H40.408V6.1819H31.1589C31.0562 6.1819 30.9714 6.16777 30.9072 6.13823C30.843 6.10869 30.7903 6.06245 30.753 5.99695C30.7158 5.93144 30.6888 5.84667 30.6721 5.74135C30.6567 5.63602 30.649 5.50758 30.649 5.35602V1.65304H29.195C27.7077 1.65304 26.6956 2.83086 26.6956 4.17564V4.18977C26.6956 5.53455 27.6936 6.69824 29.1809 6.69824H29.1822ZM27.2697 4.16151C27.2697 3.05306 28.066 2.16167 29.1822 2.16167H30.4409L30.1108 2.32608V5.35602C30.1108 5.56667 30.1275 5.75548 30.1609 5.92245C30.1802 6.02007 30.2084 6.10869 30.2444 6.18961H29.195C28.0776 6.18961 27.2684 5.28281 27.2684 4.17564V4.16151H27.2697ZM24.2398 5.9841L24.006 5.36501V1.6479H24.5609V6.68796H24.1062L20.5291 2.15396L20.845 2.88865V6.68796H20.2902V1.6479H20.8245L24.2398 5.9841ZM34.7668 11.7871L31.6674 14.7415C33.3303 15.0217 34.9595 15.8952 34.9595 18.1681V18.2028C34.9595 20.5109 33.2782 22.2076 30.545 22.2076C28.3371 22.2076 26.8124 21.3342 25.7618 20.0921L27.6191 18.3261C28.4604 19.2714 29.3363 19.7954 30.5796 19.7954C31.5956 19.7954 32.3136 19.2187 32.3136 18.3094V18.2747C32.3136 17.278 31.4197 16.718 29.913 16.718H28.7917L28.3704 15.0046L32.3046 11.055L30.7286 12.0671H26.4798V9.759H34.7668V11.7871ZM14.2059 4.16794C14.2059 2.77691 15.2527 1.56057 16.7888 1.56057V1.56186C18.3263 1.56186 19.3577 2.76407 19.3577 4.15381V4.16794C19.3577 5.55768 18.3122 6.77402 16.7747 6.77402C15.2373 6.77402 14.2059 5.57181 14.2059 4.18207V4.16794ZM16.7888 6.24869C17.9435 6.24869 18.7656 5.32648 18.7656 4.18207V4.16794C18.7656 3.02352 17.9281 2.08718 16.7747 2.08718C15.6213 2.08718 14.798 3.00939 14.798 4.15381V4.16794C14.798 5.31235 15.6342 6.24869 16.7888 6.24869ZM42.1895 9.54836C38.4056 9.54836 35.6544 12.3985 35.6544 15.878V15.9126C35.6544 19.3921 38.3696 22.2076 42.1535 22.2076C45.9374 22.2076 48.6886 19.3575 48.6886 15.878V15.8433C48.6886 12.3638 45.9734 9.54836 42.1895 9.54836ZM45.8694 15.9126C45.8694 18.0114 44.3627 19.7248 42.1895 19.7248C40.0163 19.7248 38.475 17.9767 38.475 15.878V15.8433C38.475 13.7445 39.9816 12.0311 42.1535 12.0311C44.3255 12.0311 45.8681 13.7792 45.8681 15.878V15.9126H45.8694ZM12.653 1.6479H13.2233V6.68796H12.653V1.6479ZM3.49641 20.6008L4.0166 20.2L6.69718 18.1347C8.86913 16.456 9.92107 15.4426 9.92107 13.3965V13.3618C9.92107 11.0704 8.23977 9.58432 5.69919 9.58432C3.50926 9.58432 2.3353 10.4757 1.12666 12.1198L3.01861 13.6405C3.92926 12.5218 4.57789 11.9977 5.52451 11.9977C6.47112 11.9977 7.17113 12.5578 7.17113 13.5891C7.17113 14.6205 6.57516 15.2679 5.05184 16.5266L0.968677 19.8661V21.9995H10.0431V19.6734H5.36781L3.49641 20.6008ZM5.70561 1.6479L3.53366 6.72392H3.02888L0.856934 1.6479H1.49144L1.80227 2.398L3.28834 5.98923L3.43091 6.33346L3.37568 5.77987L5.09166 1.6479H5.70561ZM7.0504 1.6479H6.48012V6.68796H7.0504V1.6479ZM8.69702 2.91563C8.69702 3.39087 8.95648 3.65674 10.0675 3.89436L10.0662 3.89693C11.1926 4.14225 11.7116 4.55198 11.7116 5.32263V5.33676C11.7116 6.20117 10.991 6.76246 9.98786 6.76246C9.18767 6.76246 8.53133 6.49659 7.92509 5.95585L8.2783 5.53841C8.80491 6.01365 9.33153 6.25127 10.0097 6.25127C10.6879 6.25127 11.1348 5.89163 11.1348 5.39456V5.38043C11.1348 4.91162 10.8831 4.64574 9.82217 4.42225C8.66106 4.16922 8.12674 3.79546 8.12674 2.96701V2.95288C8.12674 2.16039 8.82675 1.57727 9.78621 1.57727C10.5222 1.57727 11.0488 1.78534 11.5613 2.19636L11.2299 2.63563C10.7611 2.25416 10.291 2.08847 9.77208 2.08847C9.11574 2.08847 8.69702 2.4481 8.69702 2.9015V2.91563Z" fill="white"/>
<path d="M17.3743 8.74432L17.9947 9.33901L17.3987 9.9581L16.7783 9.36341L17.3743 8.74432Z" fill="white"/>
<path d="M18.7949 9.36341L19.4166 9.9581L20.0125 9.33901L19.3909 8.74432L18.7949 9.36341Z" fill="white"/>
<path d="M17.9204 10.1444L18.4046 10.6081L18.8683 10.1251L18.3854 9.66272L17.9204 10.1444Z" fill="white"/>
<path d="M19.6943 10.4102L20.1773 10.8726L20.6422 10.391L20.158 9.92731L19.6943 10.4102Z" fill="white"/>
<path d="M17.1304 10.8829L17.6133 11.3466L18.077 10.8636L17.594 10.4L17.1304 10.8829Z" fill="white"/>
<path d="M18.7524 10.9394L19.2354 11.4018L19.7003 10.9202L19.2161 10.4565L18.7524 10.9394Z" fill="white"/>
<path d="M18.1182 11.4943L18.4585 11.8205L18.7848 11.4802L18.4444 11.1539L18.1182 11.4943Z" fill="white"/>
<path d="M19.4014 11.7499L19.7417 12.0762L20.068 11.7358L19.7276 11.4108L19.4014 11.7499Z" fill="white"/>
<path d="M23.2585 8.97308L22.2036 9.1665L22.3968 10.2201L23.4517 10.0267L23.2585 8.97308Z" fill="white"/>
<path d="M21.6741 9.45164L20.8276 9.60669L20.9825 10.4519L21.8289 10.2968L21.6741 9.45164Z" fill="white"/>
<path d="M23.3098 10.6322L22.4634 10.7874L22.6183 11.6326L23.4648 11.4774L23.3098 10.6322Z" fill="white"/>
<path d="M21.9554 10.7903L21.2959 10.9111L21.4165 11.5693L22.076 11.4485L21.9554 10.7903Z" fill="white"/>
<path d="M23.2371 12.0403L22.5776 12.1611L22.6982 12.8194L23.3577 12.6986L23.2371 12.0403Z" fill="white"/>
<path d="M20.9676 11.0576L20.3081 11.1784L20.4287 11.8366L21.0882 11.7158L20.9676 11.0576Z" fill="white"/>
<path d="M22.1629 11.9198L21.5034 12.0406L21.624 12.6989L22.2835 12.5781L22.1629 11.9198Z" fill="white"/>
<path d="M21.1282 12.0324L20.6646 12.1174L20.7493 12.5798L21.213 12.4948L21.1282 12.0324Z" fill="white"/>
<path d="M22.0189 12.9909L21.5552 13.0757L21.6397 13.5381L22.1034 13.4533L22.0189 12.9909Z" fill="white"/>
<path d="M25.3415 12.6182L24.8804 13.5853L25.8501 14.0452L26.3099 13.078L25.3415 12.6182Z" fill="white"/>
<path d="M23.9663 12.1712L23.5977 12.947L24.3747 13.3156L24.7446 12.5398L23.9663 12.1712Z" fill="white"/>
<path d="M24.6033 14.0824L24.2334 14.8582L25.0105 15.2268L25.3804 14.451L24.6033 14.0824Z" fill="white"/>
<path d="M23.5846 13.5005L23.2969 14.1042L23.9018 14.3919L24.1895 13.787L23.5846 13.5005Z" fill="white"/>
<path d="M23.8917 15.2628L23.604 15.8664L24.209 16.1541L24.4967 15.5505L23.8917 15.2628Z" fill="white"/>
<path d="M22.6266 13.1409L22.3389 13.7446L22.9438 14.0323L23.2315 13.4274L22.6266 13.1409Z" fill="white"/>
<path d="M23.0914 14.5383L22.8037 15.142L23.4087 15.4297L23.6964 14.8248L23.0914 14.5383Z" fill="white"/>
<path d="M22.3633 14.1119L22.1616 14.5371L22.5868 14.7387L22.7897 14.3149L22.3633 14.1119Z" fill="white"/>
<path d="M22.5257 15.4085L22.3237 15.8329L22.7494 16.0355L22.9514 15.611L22.5257 15.4085Z" fill="white"/>
<path d="M25.8643 17.2485L24.9229 17.7635L25.4392 18.7024L26.3794 18.1874L25.8643 17.2485Z" fill="white"/>
<path d="M25.0103 16.0835L24.2563 16.4958L24.6699 17.2497L25.4252 16.8362L25.0103 16.0835Z" fill="white"/>
<path d="M24.4066 18.0037L23.6514 18.4173L24.0662 19.17L24.8202 18.7577L24.4066 18.0037Z" fill="white"/>
<path d="M23.921 16.9376L23.334 17.2587L23.6564 17.8457L24.2434 17.5233L23.921 16.9376Z" fill="white"/>
<path d="M23.1376 18.5457L22.5493 18.8681L22.8717 19.4538L23.46 19.1327L23.1376 18.5457Z" fill="white"/>
<path d="M23.3558 16.0861L22.7676 16.4084L23.09 16.9941L23.6782 16.673L23.3558 16.0861Z" fill="white"/>
<path d="M22.9127 17.4912L22.3257 17.8136L22.6481 18.3993L23.2351 18.0782L22.9127 17.4912Z" fill="white"/>
<path d="M22.5723 16.7206L22.1587 16.9479L22.386 17.3602L22.7996 17.1342L22.5723 16.7206Z" fill="white"/>
<path d="M21.9443 17.8663L21.5308 18.0923L21.7568 18.5046L22.1704 18.2786L21.9443 17.8663Z" fill="white"/>
<path d="M22.5104 21.1785L22.3789 22.2416L23.4433 22.3733L23.5748 21.3102L22.5104 21.1785Z" fill="white"/>
<path d="M22.7091 19.7572L22.6035 20.61L23.4575 20.7158L23.5632 19.863L22.7091 19.7572Z" fill="white"/>
<path d="M21.0919 20.963L20.9863 21.8157L21.8404 21.9215L21.946 21.0687L21.0919 20.963Z" fill="white"/>
<path d="M21.5167 19.8414L21.4346 20.5055L22.1 20.5878L22.1821 19.9237L21.5167 19.8414Z" fill="white"/>
<path d="M19.9366 20.6886L19.8545 21.3527L20.5199 21.435L20.602 20.7709L19.9366 20.6886Z" fill="white"/>
<path d="M21.553 18.8172L21.4707 19.4813L22.1361 19.5637L22.2183 18.8996L21.553 18.8172Z" fill="white"/>
<path d="M20.3708 19.6987L20.2886 20.3628L20.954 20.4452L21.0362 19.7811L20.3708 19.6987Z" fill="white"/>
<path d="M20.7437 18.9006L20.686 19.3672L21.1539 19.425L21.2115 18.9585L20.7437 18.9006Z" fill="white"/>
<path d="M19.5631 19.4628L19.5054 19.9293L19.9732 19.9872L20.0309 19.5206L19.5631 19.4628Z" fill="white"/>
<path d="M19.3345 23.2634L18.5484 22.5339L17.8188 23.3199L18.6049 24.0482L19.3345 23.2634Z" fill="white"/>
<path d="M19.1894 8.26397L18.4034 7.53442L17.6738 8.3192L18.4599 9.04875L19.1894 8.26397Z" fill="white"/>
<path d="M20.1734 22.0869L19.5427 21.5025L18.957 22.1332L19.589 22.7163L20.1734 22.0869Z" fill="white"/>
<path d="M18.1568 22.1203L17.5261 21.5359L16.9404 22.1665L17.5711 22.7497L18.1568 22.1203Z" fill="white"/>
<path d="M19.0174 21.3252L18.5268 20.8705L18.0708 21.3599L18.5614 21.8146L19.0174 21.3252Z" fill="white"/>
<path d="M17.241 21.0889L16.7504 20.6342L16.2944 21.1249L16.7851 21.5795L17.241 21.0889Z" fill="white"/>
<path d="M19.6478 20.5212L19.1571 20.0652L18.7012 20.5558L19.1918 21.0105L19.6478 20.5212Z" fill="white"/>
<path d="M18.1735 20.5456L17.6816 20.0896L17.2256 20.5802L17.7175 21.0349L18.1735 20.5456Z" fill="white"/>
<path d="M18.7977 19.9792L18.4521 19.6594L18.1323 20.0036L18.4778 20.3247L18.7977 19.9792Z" fill="white"/>
<path d="M17.5105 19.7441L17.165 19.4243L16.8452 19.7698L17.1907 20.0896L17.5105 19.7441Z" fill="white"/>
<path d="M14.5404 21.323L13.4888 21.5337L13.6992 22.584L14.7508 22.3733L14.5404 21.323Z" fill="white"/>
<path d="M15.9532 21.0659L15.1094 21.2349L15.2782 22.0775L16.122 21.9084L15.9532 21.0659Z" fill="white"/>
<path d="M14.2954 19.9168L13.4517 20.086L13.6206 20.9285L14.4644 20.7593L14.2954 19.9168Z" fill="white"/>
<path d="M15.5016 19.9591L14.8442 20.0908L14.9757 20.747L15.6331 20.6152L15.5016 19.9591Z" fill="white"/>
<path d="M16.4836 19.674L15.8262 19.8057L15.9576 20.4619L16.615 20.3301L16.4836 19.674Z" fill="white"/>
<path d="M15.2721 18.834L14.6147 18.9658L14.7462 19.6219L15.4036 19.4902L15.2721 18.834Z" fill="white"/>
<path d="M16.1502 18.9346L15.688 19.0271L15.7803 19.4881L16.2425 19.3955L16.1502 18.9346Z" fill="white"/>
<path d="M15.242 17.9957L14.7798 18.0884L14.8722 18.5493L15.3344 18.4566L15.242 17.9957Z" fill="white"/>
<path d="M11.5575 18.9748L12.0019 18.0012L11.0258 17.5568L10.5801 18.5316L11.5575 18.9748Z" fill="white"/>
<path d="M12.9393 19.3999L13.2963 18.6177L12.5128 18.2619L12.1558 19.0428L12.9393 19.3999Z" fill="white"/>
<path d="M12.2713 17.499L12.6284 16.718L11.8449 16.361L11.4878 17.1432L12.2713 17.499Z" fill="white"/>
<path d="M12.9681 17.1788L12.6904 17.7876L13.3004 18.0658L13.5781 17.457L12.9681 17.1788Z" fill="white"/>
<path d="M14.116 19.5861L14.3934 18.9773L13.7833 18.6999L13.5059 19.3087L14.116 19.5861Z" fill="white"/>
<path d="M12.6312 15.4186L12.3535 16.0275L12.9635 16.3057L13.2412 15.6969L12.6312 15.4186Z" fill="white"/>
<path d="M13.9315 17.5203L13.6538 18.1291L14.2638 18.4073L14.5415 17.7985L13.9315 17.5203Z" fill="white"/>
<path d="M13.4439 16.1308L13.166 16.7395L13.7759 17.018L14.0539 16.4092L13.4439 16.1308Z" fill="white"/>
<path d="M14.5101 17.4321L14.7053 17.0032L14.2763 16.8079L14.0811 17.2369L14.5101 17.4321Z" fill="white"/>
<path d="M14.3277 16.1388L14.523 15.7098L14.094 15.5158L13.8975 15.9435L14.3277 16.1388Z" fill="white"/>
<path d="M10.9575 14.3534L11.89 13.8242L11.3583 12.893L10.4258 13.4235L10.9575 14.3534Z" fill="white"/>
<path d="M11.8307 15.5055L12.5783 15.0791L12.1518 14.3328L11.4043 14.7593L11.8307 15.5055Z" fill="white"/>
<path d="M12.4025 13.5738L13.1513 13.1487L12.7236 12.4024L11.9761 12.8275L12.4025 13.5738Z" fill="white"/>
<path d="M12.9059 14.6334L13.4877 14.3007L13.1551 13.7202L12.5732 14.0515L12.9059 14.6334Z" fill="white"/>
<path d="M13.6637 13.0112L14.2456 12.6798L13.9129 12.0992L13.3311 12.4306L13.6637 13.0112Z" fill="white"/>
<path d="M13.4852 15.4747L14.0683 15.1433L13.7356 14.5615L13.1538 14.8928L13.4852 15.4747Z" fill="white"/>
<path d="M13.9041 14.0618L14.486 13.7305L14.1546 13.1499L13.5728 13.4813L13.9041 14.0618Z" fill="white"/>
<path d="M14.2572 14.8273L14.6669 14.5936L14.4332 14.1851L14.0234 14.4176L14.2572 14.8273Z" fill="white"/>
<path d="M14.8671 13.6714L15.2768 13.4389L15.043 13.0292L14.6333 13.2629L14.8671 13.6714Z" fill="white"/>
<path d="M13.295 9.19157L13.1812 10.2567L14.2476 10.3707L14.3614 9.30554L13.295 9.19157Z" fill="white"/>
<path d="M13.3063 10.8456L13.2148 11.7L14.0705 11.7915L14.162 10.9372L13.3063 10.8456Z" fill="white"/>
<path d="M14.9025 9.61381L14.811 10.4682L15.6667 10.5598L15.7582 9.7054L14.9025 9.61381Z" fill="white"/>
<path d="M14.6689 10.9541L14.5977 11.6195L15.2643 11.6909L15.3355 11.0255L14.6689 10.9541Z" fill="white"/>
<path d="M16.2326 10.0812L16.1616 10.7466L16.8283 10.8177L16.8993 10.1523L16.2326 10.0812Z" fill="white"/>
<path d="M14.645 11.9746L14.5737 12.64L15.2404 12.7114L15.3116 12.046L14.645 11.9746Z" fill="white"/>
<path d="M15.8134 11.0737L15.7422 11.7391L16.4088 11.8104L16.4801 11.1451L15.8134 11.0737Z" fill="white"/>
<path d="M15.6306 12.1003L15.5806 12.5677L16.0493 12.6179L16.0993 12.1505L15.6306 12.1003Z" fill="white"/>
<path d="M16.8017 11.5184L16.752 11.9858L17.2207 12.0357L17.2704 11.5682L16.8017 11.5184Z" fill="white"/>
<path d="M21.8148 16.4496C21.7352 16.4046 21.59 16.3289 21.3897 16.2659C21.1007 16.1734 20.6974 16.1041 20.2196 16.1799C20.059 16.2055 19.8895 16.2479 19.7135 16.3109C19.6968 16.3173 19.6801 16.3224 19.6634 16.3289C19.5735 16.3622 19.4849 16.4033 19.395 16.4483C19.3192 16.4868 19.2421 16.5292 19.1663 16.5755C18.9929 16.6795 18.8221 16.7977 18.6564 16.9261C18.4676 15.7843 18.5601 14.7246 18.6038 14.2044C18.6038 14.2019 18.6076 14.2006 18.6102 14.2019C19.0148 14.4562 18.9017 15.1665 18.8157 15.3707C18.8144 15.3745 18.8195 15.3771 18.8234 15.3745C19.3269 14.7798 19.0816 14.1222 18.9775 13.9565C18.975 13.9527 18.9801 13.9488 18.9839 13.9514C19.0572 14.0105 19.1162 14.0734 19.1663 14.1376C19.3217 14.3367 19.3795 14.5512 19.395 14.7413C19.4027 14.8415 19.4001 14.934 19.395 15.0136C19.3937 15.0354 19.3924 15.0547 19.3898 15.074C19.3898 15.0765 19.3924 15.0778 19.395 15.0765H19.3975C19.5337 14.8094 19.5992 14.4061 19.395 14.0143C19.3397 13.9077 19.2652 13.8024 19.1663 13.7009C19.1381 13.6714 19.1073 13.6431 19.0751 13.6136C19.0726 13.611 19.0751 13.6059 19.079 13.6072C19.1098 13.6149 19.1381 13.6239 19.1663 13.6329C19.2524 13.6624 19.3282 13.7035 19.395 13.7536C19.5478 13.8666 19.6518 14.0208 19.7135 14.1826C19.7649 14.3162 19.788 14.4536 19.788 14.5756C19.788 14.5808 19.7944 14.5808 19.7957 14.5756C19.8907 14.2275 19.8329 13.9642 19.7135 13.7729C19.6287 13.6354 19.5118 13.5352 19.395 13.4646C19.3153 13.4171 19.2357 13.3837 19.1663 13.3631C19.1252 13.3503 19.0893 13.3426 19.0572 13.3387C19.052 13.3387 19.0533 13.331 19.0572 13.331C19.0944 13.3272 19.1304 13.3259 19.165 13.3246C19.2498 13.3233 19.3256 13.331 19.3937 13.3426C19.5285 13.3683 19.6339 13.4145 19.7122 13.4685C19.8407 13.5545 19.9049 13.656 19.9267 13.6971C19.9293 13.7009 19.9344 13.6984 19.9344 13.6945C19.9164 13.5108 19.8317 13.367 19.7135 13.2642C19.6223 13.1846 19.5106 13.1294 19.395 13.096C19.3192 13.0754 19.2421 13.0639 19.1663 13.0626C19.0636 13.0626 18.9647 13.078 18.8812 13.114C18.8773 13.1152 18.8748 13.1114 18.8761 13.1075C18.9506 13.0009 19.0559 12.9367 19.1663 12.902C19.2434 12.8789 19.3217 12.8699 19.395 12.8751C19.4656 12.8789 19.5298 12.8943 19.5825 12.9187C19.5863 12.92 19.5889 12.9162 19.5863 12.9123C19.5285 12.8468 19.463 12.7954 19.395 12.7569C19.3217 12.7158 19.2447 12.6914 19.1663 12.6824C18.9621 12.6593 18.754 12.7466 18.6153 12.956C18.614 12.9585 18.6102 12.9585 18.6089 12.956C18.5819 12.9085 18.5562 12.8558 18.5331 12.8006C18.4779 12.6721 18.4329 12.5283 18.4085 12.3844C18.4085 12.3793 18.4021 12.3793 18.4021 12.3844C18.3777 12.5283 18.3315 12.6734 18.2762 12.8018C18.2518 12.8571 18.2274 12.9085 18.2005 12.9547C18.1992 12.9573 18.1953 12.9573 18.194 12.9547C17.9526 12.5886 17.4992 12.5963 17.223 12.9123C17.2204 12.9149 17.223 12.92 17.2269 12.9187C17.4105 12.8314 17.7586 12.8571 17.9333 13.1075C17.9359 13.1114 17.9333 13.1152 17.9282 13.114C17.6597 13.0009 17.2436 13.0741 17.0214 13.3387C16.9417 13.4325 16.8878 13.5519 16.8736 13.6945C16.8736 13.6984 16.8788 13.7009 16.8814 13.6971C16.8981 13.665 16.9417 13.5956 17.0214 13.525C17.1511 13.4107 17.3771 13.2951 17.7509 13.3297C17.756 13.3297 17.756 13.3374 17.7509 13.3374C17.5595 13.3606 17.1652 13.5314 17.0201 13.9219C16.9559 14.094 16.9392 14.3097 17.0111 14.5743C17.0111 14.5782 17.0188 14.5782 17.0188 14.5743C17.0188 14.5679 17.0188 14.5628 17.0188 14.5564C17.0226 14.2019 17.2256 13.7266 17.7278 13.6059C17.7316 13.6059 17.7342 13.6097 17.7316 13.6123C17.1703 14.1055 17.2256 14.7143 17.4093 15.074C17.4118 15.0778 17.417 15.0765 17.417 15.0714C17.3926 14.7991 17.3733 14.3149 17.8228 13.9488C17.8267 13.9463 17.8318 13.9488 17.8293 13.954C17.7252 14.1209 17.4799 14.7773 17.9834 15.372C17.986 15.3758 17.9924 15.372 17.9911 15.3681C17.9063 15.1652 17.7933 14.4536 18.1966 14.1993C18.1992 14.198 18.203 14.1993 18.203 14.2019C18.2467 14.722 18.3392 15.7817 18.1504 16.9235C17.8254 16.6744 17.4825 16.456 17.1434 16.3276C17.101 16.3122 17.0599 16.298 17.0201 16.2839C16.6694 16.1683 16.3483 16.1362 16.0683 16.149C15.6188 16.1683 15.2745 16.3032 15.0857 16.3969C15.0472 16.4162 15.0151 16.4342 14.9907 16.4483C14.9804 16.4547 14.9881 16.4689 14.9984 16.465C15.0279 16.456 15.0562 16.447 15.0857 16.4393C15.4312 16.3417 15.7588 16.316 16.0683 16.343C16.4061 16.3725 16.7234 16.465 17.0201 16.5986C17.4362 16.7861 17.8126 17.0533 18.1529 17.3358C17.6726 17.7546 17.2667 18.1617 17.0201 18.3043C17.0072 18.3107 16.9957 18.3184 16.9841 18.3248C16.925 18.2439 16.8223 18.1977 16.7105 18.2221C16.6129 18.2439 16.5333 18.3223 16.5114 18.4186C16.4922 18.5047 16.514 18.5984 16.5628 18.6472C16.6938 18.7782 16.8454 18.7872 17.0201 18.714C17.3527 18.574 17.7663 18.1347 18.2737 17.6698C18.3161 17.6313 18.3584 17.5914 18.4021 17.5529C18.4458 17.5914 18.4882 17.63 18.5305 17.6685C18.7605 17.8791 18.9711 18.0847 19.1638 18.2593C19.2434 18.3313 19.3192 18.398 19.3924 18.4571C19.5054 18.5496 19.612 18.6254 19.7109 18.6781C19.9049 18.7808 20.0731 18.7937 20.217 18.6665C20.2247 18.6601 20.2324 18.6536 20.2401 18.6459C20.2735 18.6125 20.312 18.5034 20.2915 18.4173C20.2799 18.3672 20.253 18.3223 20.2157 18.2876C20.1823 18.2555 20.1386 18.2311 20.0924 18.2208C19.9807 18.1964 19.8779 18.2426 19.8188 18.3236C19.7854 18.3069 19.7495 18.2837 19.7096 18.2568C19.6184 18.1938 19.5118 18.1052 19.3911 17.9999C19.3192 17.9369 19.2434 17.8676 19.1625 17.7944C19.0058 17.6518 18.8337 17.4951 18.6513 17.3346C18.8131 17.1997 18.9839 17.0687 19.1625 16.9479C19.237 16.8979 19.3128 16.849 19.3911 16.8028C19.4951 16.7412 19.6005 16.6846 19.7096 16.632C19.8728 16.5536 20.041 16.4881 20.2157 16.438C20.5779 16.334 20.9671 16.2993 21.3858 16.3661C21.522 16.3879 21.6607 16.42 21.8032 16.4637C21.8148 16.4676 21.8212 16.4522 21.8122 16.447" fill="white"/>
<path fill-rule="evenodd" clip-rule="evenodd" d="M16.8312 27.4403H16.3277C16.1479 27.4403 16.0066 27.4146 15.9039 27.3632C15.8011 27.3119 15.7202 27.2348 15.6611 27.1333C15.6791 27.0537 15.6881 26.9574 15.6881 26.8456V25.854H15.3798V26.8944C15.3798 27.0717 15.3323 27.213 15.2373 27.3196C15.1422 27.4262 14.9984 27.4788 14.8057 27.4788C14.7158 27.4788 14.6336 27.4647 14.5591 27.4364C14.4846 27.4082 14.4204 27.3697 14.3664 27.3208C14.3125 27.272 14.2701 27.2155 14.2393 27.15C14.2085 27.0845 14.1918 27.0152 14.1892 26.9407V25.854H13.8809V26.9175C13.8809 27.0126 13.8668 27.0922 13.8385 27.1577C13.8103 27.2232 13.7718 27.2772 13.7229 27.3196C13.6741 27.3619 13.6189 27.3928 13.5573 27.412C13.4956 27.4313 13.4301 27.4403 13.3607 27.4403H12.7648V25.854H12.4565V27.4403H10.8407L11.3789 26.1533C11.2967 26.0814 11.2093 26.0146 11.1169 25.9517C11.0244 25.8887 10.9293 25.8335 10.8317 25.786C10.7341 25.7384 10.6352 25.7012 10.535 25.6742C10.4348 25.6472 10.3359 25.6344 10.2383 25.6344C10.1407 25.6344 10.038 25.6485 9.93777 25.6742C9.83759 25.7012 9.73869 25.7372 9.63978 25.7834C9.54088 25.8296 9.44584 25.8849 9.35464 25.9491C9.26345 26.0133 9.17868 26.0801 9.09905 26.152L9.64107 27.439H8.575V25.6614H8.08307C7.89298 25.6614 7.71958 25.6883 7.56288 25.7423C7.40618 25.7962 7.2726 25.8695 7.16086 25.9632C7.04912 26.057 6.96306 26.1687 6.90141 26.2972C6.83976 26.4269 6.80893 26.5669 6.80893 26.7185C6.80893 26.9008 6.84232 27.0563 6.9104 27.1847C6.97847 27.3144 7.07095 27.421 7.18783 27.5032C7.30471 27.5867 7.43958 27.6484 7.59371 27.6869C7.74784 27.7267 7.91096 27.746 8.08307 27.746H8.26803V27.8346C8.26803 27.9964 8.22179 28.1108 8.12931 28.1801C8.03683 28.2495 7.90711 28.2842 7.74013 28.2842C7.64508 28.2842 7.56031 28.2752 7.48453 28.2572C7.40875 28.2392 7.3227 28.2084 7.22508 28.1647L7.12875 28.4601C7.24692 28.5038 7.35095 28.5359 7.44215 28.5577C7.53334 28.5796 7.62453 28.5911 7.71701 28.5911C8.01757 28.5911 8.23463 28.5205 8.37078 28.3779C8.50693 28.2353 8.575 28.044 8.575 27.8038V27.746H13.3582C13.5072 27.746 13.6395 27.7139 13.7563 27.6497C13.8732 27.5854 13.967 27.4994 14.0389 27.3928C14.1134 27.5161 14.2149 27.6124 14.3433 27.6805C14.4718 27.7498 14.6246 27.7845 14.8019 27.7845C14.9791 27.7845 15.1435 27.7524 15.2732 27.6882C15.403 27.624 15.5019 27.5264 15.5712 27.3928C15.5969 27.4364 15.6277 27.4788 15.665 27.5212C15.7022 27.5636 15.7498 27.6008 15.8088 27.6342C15.8679 27.6676 15.9399 27.6946 16.0221 27.7152C16.085 27.7306 16.1608 27.7383 16.243 27.7421V27.746H17.1318V24.9896H16.8235V27.439L16.8312 27.4403ZM8.27317 27.4403H7.96105C7.84545 27.4403 7.73756 27.4249 7.63609 27.3928C7.53462 27.3607 7.446 27.3144 7.36894 27.2528C7.29187 27.1911 7.2315 27.1153 7.18783 27.0267C7.14416 26.9368 7.12233 26.834 7.12233 26.7197C7.12233 26.6054 7.14545 26.5091 7.19297 26.4166C7.24049 26.3241 7.30343 26.2458 7.38178 26.1803C7.46013 26.1148 7.54875 26.0647 7.64894 26.0287C7.74912 25.9928 7.85316 25.9748 7.96105 25.9748H8.27317V27.4403ZM9.96988 27.4403L9.48951 26.2612C9.60767 26.161 9.72841 26.0878 9.853 26.0428C9.97759 25.9966 10.1073 25.9735 10.2435 25.9735C10.3796 25.9735 10.5196 26.0005 10.6558 26.0557C10.7919 26.1109 10.9075 26.179 11.0026 26.2612L10.5222 27.4403H9.97245H9.96988ZM18.3443 24.9909H18.036V27.7473H18.3443V24.9909ZM24.6212 25.6627V27.7473H21.1353C20.9658 27.7473 20.8039 27.7267 20.6498 27.6856C20.4957 27.6458 20.3608 27.5829 20.2452 27.4981C20.1296 27.4133 20.0371 27.3067 19.9678 27.1757C19.8984 27.0447 19.8637 26.8893 19.8637 26.7069C19.8637 26.5579 19.8933 26.4205 19.9537 26.292C20.014 26.1636 20.0988 26.0531 20.2093 25.9594C20.3197 25.8669 20.4533 25.7937 20.61 25.741C20.7667 25.6883 20.9414 25.6627 21.134 25.6627H21.6183V27.4403H22.8423V25.6627H23.1506V27.4403H24.313V25.6627H24.6212ZM20.416 27.2476C20.4918 27.3106 20.5805 27.3581 20.6819 27.3915H20.6832C20.7847 27.4249 20.8926 27.4416 21.0082 27.4416H21.3126V25.9709H21.0082C20.9028 25.9709 20.8001 25.9876 20.6999 26.0223C20.5997 26.057 20.5111 26.1071 20.4327 26.1726C20.3544 26.2381 20.2915 26.3151 20.2439 26.4063C20.1964 26.4975 20.172 26.5926 20.172 26.7082C20.172 26.8238 20.1938 26.9265 20.2375 27.0177C20.2812 27.1076 20.3403 27.1847 20.416 27.2476ZM3.34871 28.1133H3.66467V28.4293H3.34871V28.1133ZM21.3023 24.9909H21.6183V25.3069H21.3023V24.9909ZM24.6251 28.1095H24.3091V28.4254H24.6251V28.1095ZM3.88688 28.1133H4.20285V28.4293H3.88688V28.1133ZM2.2942 24.9909H2.61016V25.3069H2.2942V24.9909ZM33.7483 24.9909H33.4323V25.3069H33.7483V24.9909ZM30.7055 24.9909H31.0138V27.7473H30.7055V24.9909ZM21.0788 24.9909H20.7628V25.3069H21.0788V24.9909ZM6.27718 26.2008C6.31057 26.3062 6.32599 26.4179 6.32599 26.5386V27.7486H4.57532V27.4416H6.01901V26.5502C6.01901 26.4616 6.01002 26.3845 5.99332 26.3203C5.97662 26.2561 5.94708 26.197 5.90341 26.143C5.85974 26.0917 5.80451 26.0506 5.73772 26.0184C5.67093 25.9876 5.60029 25.9709 5.52579 25.9709H5.25607V25.6639H5.48341C5.62983 25.6639 5.75314 25.6858 5.8546 25.7307C5.95607 25.7757 6.04727 25.8425 6.12947 25.9324C6.19626 26.0069 6.24507 26.0955 6.27718 26.2008ZM47.3015 24.9909H46.9932V27.7473H47.3015V24.9909ZM33.9718 24.9909H34.2878V25.3069H33.9718V24.9909ZM46.0967 24.9909H45.7884V27.4403H44.7301C44.7943 27.299 44.8264 27.1487 44.8264 26.9869C44.8264 26.8251 44.7969 26.6799 44.7404 26.5438C44.6826 26.4063 44.6042 26.2882 44.504 26.1893C44.4038 26.0891 44.2857 26.0107 44.1482 25.9529C44.0108 25.8951 43.8631 25.8669 43.7038 25.8669C43.5446 25.8669 43.4058 25.8964 43.2723 25.9555C43.1387 26.0146 43.0231 26.0942 42.9242 26.1957C42.8253 26.2972 42.7482 26.4153 42.6917 26.5515C42.6352 26.6876 42.6069 26.8328 42.6069 26.9895C42.6069 27.0717 42.6159 27.15 42.6326 27.2258C42.6493 27.3016 42.6712 27.3735 42.6994 27.4429H41.7451C41.8093 27.3016 41.8414 27.1513 41.8414 26.9895C41.8414 26.8276 41.8119 26.6825 41.7554 26.5463C41.6976 26.4089 41.6192 26.2907 41.519 26.1918C41.4188 26.0917 41.3007 26.0133 41.1632 25.9555C41.0258 25.8977 40.8781 25.8695 40.7188 25.8695C40.5596 25.8695 40.4221 25.899 40.2886 25.9581C40.155 26.0172 40.0394 26.0968 39.9405 26.1983C39.8416 26.2997 39.7645 26.4179 39.708 26.554C39.6515 26.6902 39.6232 26.8353 39.6232 26.992C39.6232 27.0742 39.6322 27.1526 39.6489 27.2284C39.6656 27.3041 39.6875 27.3761 39.7157 27.4454H38.7383V24.996H38.43V27.4454H37.4487V26.9753C37.4487 26.8572 37.4333 26.7454 37.4025 26.6388C37.3716 26.5322 37.3228 26.4423 37.2561 26.3678C37.1764 26.2779 37.0865 26.2111 36.9863 26.1674C36.8861 26.1238 36.759 26.1019 36.6049 26.1019H35.2421L35.8214 24.9948H35.4861L34.8953 26.0981C34.9056 26.1649 34.921 26.2227 34.9441 26.2715C34.9672 26.3203 34.9955 26.3665 35.034 26.4102H36.6036C36.7012 26.4102 36.7847 26.4243 36.8553 26.4551C36.926 26.4847 36.9825 26.5245 37.0261 26.5759C37.0698 26.6273 37.0994 26.6863 37.1148 26.7531C37.1302 26.8199 37.1379 26.8944 37.1379 26.9753V27.4454H34.2903V25.6678H33.8048C33.6122 25.6678 33.4375 25.6935 33.2821 25.7461C33.1254 25.7988 32.9918 25.872 32.8813 25.9645C32.7709 26.0583 32.6861 26.1687 32.6257 26.2972C32.5654 26.4256 32.5358 26.563 32.5358 26.712C32.5358 26.8944 32.5705 27.0498 32.6399 27.1808C32.7092 27.3119 32.8017 27.4185 32.9173 27.5032C33.0329 27.588 33.1677 27.6509 33.3219 27.6908C33.476 27.7319 33.6378 27.7524 33.8061 27.7524H39.9135C40.0137 27.8603 40.1319 27.9451 40.2693 28.008C40.4067 28.0709 40.5557 28.1018 40.7176 28.1018C40.8794 28.1018 41.0348 28.0709 41.1774 28.0093C41.32 27.9476 41.442 27.8616 41.5447 27.7524H42.8998C43 27.8603 43.1181 27.9451 43.2556 28.008C43.393 28.0709 43.542 28.1018 43.7038 28.1018C43.8657 28.1018 44.0211 28.0709 44.1637 28.0093C44.3062 27.9476 44.4282 27.8616 44.531 27.7524H46.0967V24.996V24.9909ZM33.9821 27.4403H33.6777C33.5621 27.4403 33.4542 27.4236 33.3527 27.3902C33.2512 27.3568 33.1626 27.3093 33.0868 27.2463C33.0111 27.1834 32.952 27.1063 32.9083 27.0164C32.8646 26.9252 32.8428 26.8225 32.8428 26.7069C32.8428 26.5913 32.8659 26.4962 32.9134 26.4051C32.961 26.3139 33.0239 26.2368 33.1022 26.1713C33.1806 26.1058 33.2692 26.0557 33.3694 26.021C33.4696 25.9863 33.5723 25.9696 33.6777 25.9696H33.9821V27.4403ZM41.4689 27.3041C41.4266 27.403 41.3688 27.4878 41.2955 27.5597C41.2223 27.6317 41.1363 27.6869 41.0374 27.7267C40.9385 27.7665 40.8319 27.7858 40.7163 27.7858C40.6007 27.7858 40.4992 27.764 40.4029 27.7229C40.3065 27.6805 40.2231 27.6227 40.1524 27.5495C40.0818 27.4763 40.0265 27.3915 39.9867 27.2939C39.9469 27.1963 39.9276 27.0922 39.9276 26.983C39.9276 26.8739 39.9482 26.7685 39.9867 26.6696C40.0265 26.5707 40.0818 26.486 40.1511 26.4128C40.2205 26.3395 40.3027 26.2817 40.399 26.2381C40.4953 26.1944 40.6007 26.1726 40.7163 26.1726C40.8319 26.1726 40.9423 26.1931 41.0412 26.2342C41.1401 26.2753 41.2262 26.3318 41.2994 26.4038C41.3726 26.4757 41.4291 26.5605 41.4702 26.6594C41.5113 26.7583 41.5319 26.8662 41.5319 26.9843C41.5319 27.1025 41.5113 27.2065 41.4689 27.3054V27.3041ZM44.4552 27.3041C44.4128 27.403 44.355 27.4878 44.2818 27.5597C44.2086 27.6317 44.1225 27.6869 44.0236 27.7267C43.9247 27.7665 43.8181 27.7858 43.7025 27.7858C43.5869 27.7858 43.4855 27.764 43.3891 27.7229C43.2928 27.6805 43.2093 27.6227 43.1387 27.5495C43.068 27.4763 43.0128 27.3915 42.973 27.2939C42.9332 27.1963 42.9126 27.0922 42.9126 26.983C42.9126 26.8739 42.9332 26.7685 42.973 26.6696C43.0128 26.5707 43.0668 26.486 43.1361 26.4128C43.2055 26.3395 43.2877 26.2817 43.384 26.2381C43.4803 26.1944 43.5857 26.1726 43.7013 26.1726C43.8169 26.1726 43.9273 26.1931 44.0262 26.2342C44.1251 26.2753 44.2112 26.3318 44.2844 26.4038C44.3576 26.4757 44.4141 26.5605 44.4552 26.6594C44.4963 26.7583 44.5169 26.8662 44.5169 26.9843C44.5169 27.1025 44.495 27.2065 44.4526 27.3054L44.4552 27.3041ZM2.12594 27.7486C1.95768 27.7486 1.79584 27.728 1.64171 27.6869L1.643 27.6856C1.48887 27.6458 1.354 27.5829 1.23841 27.4981C1.12281 27.4133 1.03033 27.3067 0.960971 27.1757C0.891613 27.0447 0.856934 26.8893 0.856934 26.7069C0.856934 26.5579 0.886475 26.4205 0.946843 26.292C1.00721 26.1636 1.09198 26.0531 1.20244 25.9594C1.3129 25.8669 1.44648 25.7937 1.60318 25.741C1.75988 25.6883 1.93328 25.6627 2.12594 25.6627H2.61145V27.4403H3.83421V25.6627H4.14247V27.7486H2.12594ZM1.23584 26.4051C1.18831 26.4962 1.16391 26.5964 1.16391 26.7069H1.16519C1.16519 26.8225 1.18703 26.9252 1.2307 27.0164C1.27437 27.1063 1.33345 27.1834 1.40923 27.2463C1.48501 27.3093 1.57364 27.3568 1.67511 27.3902C1.77658 27.4236 1.88447 27.4403 2.00007 27.4403H2.30447V25.9696H2.00007C1.89474 25.9696 1.79199 25.9863 1.69181 26.021C1.59162 26.0557 1.503 26.1058 1.42465 26.1713C1.3463 26.2368 1.28336 26.3139 1.23584 26.4051ZM23.4999 28.1133H23.184V28.4293H23.4999V28.1133ZM22.6445 28.1133H22.9605V28.4293H22.6445V28.1133ZM25.8209 28.1377C25.8401 28.0414 25.8504 27.9335 25.8504 27.8128V27.7473H29.8103V24.9909H29.502V27.4403H28.1932L28.7314 26.1533C28.6492 26.0814 28.5618 26.0146 28.4693 25.9517C28.3769 25.8887 28.2818 25.8335 28.1842 25.786C28.0866 25.7384 27.9877 25.7012 27.8875 25.6742C27.7873 25.6472 27.6884 25.6344 27.5908 25.6344C27.4932 25.6344 27.3904 25.6485 27.2903 25.6742C27.1901 25.7012 27.0912 25.7372 26.9923 25.7834C26.8934 25.8296 26.7983 25.8849 26.7071 25.9491C26.6159 26.0133 26.5312 26.0801 26.4515 26.152L26.9935 27.439H25.8466V25.6614H25.5383V27.8128C25.5383 27.9001 25.5345 27.9733 25.5255 28.0337C25.5165 28.0941 25.5011 28.1429 25.4792 28.1801C25.4574 28.2174 25.4278 28.2443 25.3906 28.261C25.3533 28.2777 25.3058 28.2867 25.2467 28.2867C25.2185 28.2867 25.1941 28.2854 25.1735 28.2829C25.153 28.2803 25.1247 28.2739 25.0888 28.2636L25.0078 28.559C25.0926 28.5821 25.1761 28.5937 25.2583 28.5937C25.3688 28.5937 25.4612 28.5757 25.537 28.5398C25.6128 28.5038 25.6732 28.4524 25.7194 28.3843C25.7656 28.3163 25.7978 28.2341 25.817 28.139L25.8209 28.1377ZM26.8381 26.2612C26.9563 26.161 27.077 26.0878 27.2016 26.0428C27.3262 25.9966 27.4559 25.9735 27.5921 25.9735C27.7282 25.9735 27.8682 26.0005 28.0044 26.0557C28.1405 26.1109 28.2561 26.179 28.3512 26.2612L27.8708 27.4403H27.3211L26.8394 26.2612H26.8381ZM1.75474 24.9909H2.07071V25.3069H1.75474V24.9909ZM3.06484 29.7677H2.59089L1.54538 30.871V29.7677H1.15877V31.9614H1.54538V31.3257L1.88703 30.975L2.63842 31.9614H3.10595L2.15162 30.7117L3.06484 29.7677ZM3.45788 29.7677H3.84449V31.9627H3.45788V29.7677ZM5.97534 31.2846L4.79753 29.7677H4.44046V31.9614H4.82065V30.4009L6.03314 31.9614H6.35553V29.7677H5.97534V31.2846ZM8.51848 31.0713H7.95591V30.7361H8.89225V31.6583C8.67647 31.8433 8.36435 32 7.97517 32C7.28673 32 6.83461 31.5106 6.83461 30.871V30.8646C6.83461 30.2493 7.30599 29.7291 7.96875 29.7291C8.35151 29.7291 8.58784 29.8357 8.8139 30.0271L8.56857 30.3187C8.39903 30.1748 8.23334 30.0836 7.95334 30.0836C7.54746 30.0836 7.24049 30.4381 7.24049 30.8581V30.8646C7.24049 31.3154 7.53847 31.648 7.98802 31.648C8.19481 31.648 8.38362 31.5825 8.51848 31.4824V31.0713ZM10.246 29.7677H9.42657V31.9627H10.246C10.937 31.9627 11.4148 31.4836 11.4148 30.8645V30.8581C11.4148 30.2403 10.937 29.7677 10.246 29.7677ZM11.009 30.871C11.009 31.3 10.7071 31.6108 10.246 31.6108H9.81318V30.1183H10.246C10.7084 30.1183 11.009 30.4356 11.009 30.8645V30.871ZM11.7771 30.8646C11.7771 30.2467 12.2536 29.7291 12.9292 29.7291H12.9305C13.6061 29.7291 14.0774 30.2403 14.0774 30.8581V30.8646C14.0774 31.4824 13.5996 32 12.924 32C12.2484 32 11.7771 31.4888 11.7771 30.871V30.8646ZM12.9292 31.6455C13.3659 31.6455 13.6703 31.2974 13.6703 30.871V30.8646C13.6703 30.4381 13.3595 30.0836 12.9228 30.0836C12.4861 30.0836 12.1816 30.4317 12.1816 30.8581V30.8646C12.1816 31.291 12.4925 31.6455 12.9292 31.6455ZM15.6367 30.8055L14.9675 29.7677H14.5552V31.9614H14.9354V30.3944L15.6239 31.4233H15.6367L16.3303 30.388V31.9614H16.7169V29.7677H16.3059L15.6367 30.8055ZM18.1298 30.8646C18.1298 30.2467 18.6063 29.7291 19.2819 29.7291H19.2832C19.9588 29.7291 20.4302 30.2403 20.4302 30.8581V30.8646C20.4302 31.4824 19.9524 32 19.2768 32C18.6012 32 18.1298 31.4888 18.1298 30.871V30.8646ZM19.2819 31.6455C19.7186 31.6455 20.023 31.2974 20.023 30.871V30.8646C20.023 30.4381 19.7122 30.0836 19.2755 30.0836C18.8388 30.0836 18.5344 30.4317 18.5344 30.8581V30.8646C18.5344 31.291 18.8452 31.6455 19.2819 31.6455ZM20.908 31.9614H21.2946V31.0688H22.403V30.7168H21.2946V30.1183H22.5443V29.7677H20.908V31.9614ZM24.2385 30.3444C24.2385 30.5126 24.3387 30.5884 24.7599 30.6886H24.7587C25.2236 30.8016 25.4651 30.9673 25.4651 31.3308V31.3372C25.4651 31.7469 25.1427 31.9923 24.6803 31.9923C24.3438 31.9923 24.0278 31.8767 23.7632 31.6416L23.9957 31.3655C24.2064 31.5466 24.417 31.6506 24.6906 31.6506C24.9295 31.6506 25.0798 31.5414 25.0798 31.3745V31.368C25.0798 31.2113 24.9924 31.1266 24.584 31.0328C24.1165 30.9198 23.8519 30.7823 23.8519 30.3778V30.3713C23.8519 29.9963 24.1665 29.7355 24.6032 29.7355C24.9231 29.7355 25.1774 29.8332 25.4009 30.0117L25.1941 30.3033C24.9963 30.1555 24.7985 30.0772 24.5968 30.0772C24.3708 30.0772 24.2385 30.1941 24.2385 30.3379V30.3444ZM26.6506 29.7522L25.6834 31.9627H26.079L26.3051 31.4323H27.3455L27.569 31.9627H27.9774L27.0102 29.7522H26.6519H26.6506ZM26.4464 31.0906L26.824 30.2121L27.2042 31.0906H26.4464ZM29.1462 31.6429C29.4892 31.6429 29.6998 31.4361 29.6998 31.0315L29.6985 31.0328V29.7689H30.0851V31.0135C30.0851 31.6686 29.7114 31.9974 29.1398 31.9974C28.5682 31.9974 28.2035 31.6673 28.2035 31.0315V29.7677H28.5901V31.0161C28.5901 31.4233 28.8033 31.6429 29.1462 31.6429ZM31.471 29.7677H30.6516V31.9627H31.471C32.162 31.9627 32.6399 31.4836 32.6399 30.8645V30.8581C32.6399 30.2403 32.162 29.7677 31.471 29.7677ZM32.234 30.871C32.234 31.3 31.9321 31.6108 31.471 31.6108H31.0382V30.1183H31.471C31.9334 30.1183 32.234 30.4356 32.234 30.8645V30.871ZM33.1292 29.7677H33.5158V31.9627H33.1292V29.7677ZM35.8252 29.7522L34.858 31.9627H35.2536L35.4797 31.4323H36.5201L36.7436 31.9627H37.152L36.1848 29.7522H35.8265H35.8252ZM35.621 31.0906L35.9986 30.2121L36.3788 31.0906H35.621ZM39.3124 30.46V30.4664L39.3137 30.4651C39.3137 30.826 39.0966 31.0418 38.7884 31.1304L39.3818 31.9614H38.9258L38.385 31.1959H37.9021V31.9614H37.5155V29.7664H38.4955C38.7717 29.7664 38.9887 29.8486 39.13 29.986C39.2469 30.1055 39.3124 30.2686 39.3124 30.46ZM37.9021 30.1183V30.8556H37.9034H38.4685C38.7447 30.8556 38.9207 30.7104 38.9207 30.4882V30.4818C38.9207 30.2467 38.7511 30.1183 38.4647 30.1183H37.9021ZM40.6328 29.7522L39.6656 31.9627H40.0612L40.2873 31.4323H41.3277L41.5511 31.9627H41.9596L40.9924 29.7522H40.6341H40.6328ZM40.4286 31.0906L40.8062 30.2121L41.1864 31.0906H40.4286ZM44.0339 30.3315C44.0339 30.5948 43.8824 30.7361 43.7192 30.8209H43.718C43.9761 30.9082 44.1547 31.0559 44.1547 31.3539V31.3603C44.1547 31.7534 43.8323 31.9627 43.3416 31.9627H42.3244V29.7677H43.3108C43.5625 29.7677 43.7603 29.8357 43.8862 29.9616C43.9838 30.0592 44.0339 30.1774 44.0339 30.3251V30.3315ZM43.2607 30.1093H42.7045V30.6924H43.2324C43.4803 30.6924 43.6473 30.5948 43.6473 30.3944V30.388C43.6473 30.2159 43.5086 30.1093 43.2607 30.1093ZM43.3455 31.6198C43.6088 31.6198 43.7693 31.517 43.7693 31.3192V31.3128C43.7693 31.1279 43.6216 31.0174 43.3172 31.0174H42.7045V31.6198H43.3455ZM45.0204 29.7677H44.6337V31.9627H45.0204V29.7677ZM46.3561 29.7522H46.7145H46.7158L47.6829 31.9627H47.2745L47.051 31.4323H46.0106L45.7846 31.9627H45.389L46.3561 29.7522ZM46.5295 30.2121L46.1519 31.0906H46.9097L46.5295 30.2121Z" fill="white"/>
</svg>
